<svg xmlns="http://www.w3.org/2000/svg" viewBox="0 0 1200.0 320" width="1200" height="320"><svg x="0.0" y="0" width="300" height="300" viewBox="0 0 600 600" xmlns="http://www.w3.org/2000/svg" font-family="DejaVu Sans Mono, Consolas, Liberation Mono, Courier New, monospace"><circle cx="300.0" cy="300.0" r="204.00000000000003" fill="none" stroke="#e2e7ee" stroke-dasharray="3" stroke-width="1"/><line x1="287.8697647845584" y1="300.0" x2="313.6231006756417" y2="287.79280169403967" stroke="#007bff" stroke-width="3.4"/><line x1="300.0" y1="504.0" x2="287.8697647845584" y2="300.0" stroke="#007bff" stroke-width="3.4"/><line x1="300.0" y1="95.99999999999997" x2="287.8697647845584" y2="300.0" stroke="#007bff" stroke-width="3.4"/><circle cx="287.8697647845584" cy="300.0" r="7" fill="#007bff"/><circle cx="313.6231006756417" cy="287.79280169403967" r="6" fill="#007bff" stroke="#007bff" stroke-width="3" class="dot"/><circle cx="288.9381924914903" cy="317.96826263819236" r="7" fill="#ffffff" fill-opacity="0.85" stroke="none"/><text x="288.9381924914903" y="321.46826263819236" text-anchor="middle" font-size="10" fill="#334">1</text><circle cx="288.9381924914903" cy="282.03173736180764" r="7" fill="#ffffff" fill-opacity="0.85" stroke="none"/><text x="288.9381924914903" y="285.53173736180764" text-anchor="middle" font-size="10" fill="#334">2</text><circle cx="304.1350295578742" cy="292.290190543604" r="7" fill="#ffffff" fill-opacity="0.85" stroke="none"/><text x="304.1350295578742" y="295.790190543604" text-anchor="middle" font-size="10" fill="#334">3</text><circle cx="300.0" cy="504.0" r="10" fill="white" stroke="#007bff" stroke-width="2.8"/><text x="300.0" y="504.0" text-anchor="middle" dy="0.35em" font-size="12" fill="#007bff">1</text><circle cx="300.0" cy="95.99999999999997" r="10" fill="white" stroke="#007bff" stroke-width="2.8"/><text x="300.0" y="95.99999999999997" text-anchor="middle" dy="0.35em" font-size="12" fill="#007bff">1</text><text x="300.0" y="522.5" text-anchor="middle" font-size="10" fill="#334">1</text><text x="300.0" y="84.49999999999997" text-anchor="middle" font-size="10" fill="#334">2</text><circle cx="95.99999999999997" cy="300.0" r="5.5" fill="none" stroke="#c62828" stroke-width="2"/></svg><text x="150.0" y="314" text-anchor="middle" font-size="12" font-family="monospace" fill="#888">unit_graph</text><svg x="300.0" y="0" width="300" height="300" viewBox="0 0 600 600" xmlns="http://www.w3.org/2000/svg" font-family="DejaVu Sans Mono, Consolas, Liberation Mono, Courier New, monospace"><circle cx="300.0" cy="300.0" r="204.00000000000003" fill="none" stroke="#e2e7ee" stroke-dasharray="3" stroke-width="1"/><path d="M 299.9999994750836 349.24995668891694 Q 287.9999995087891 300.0000000070867 299.9999995424945 250.75004334168156" fill="none" stroke="#007bff" stroke-width="3.4"/><path d="M 299.9999994750836 349.24995668891694 Q 311.9999995087891 300.00000002351175 299.9999995424945 250.75004334168156" fill="none" stroke="#007bff" stroke-width="3.4"/><line x1="300.0" y1="504.0" x2="299.9999994750836" y2="349.24995668891694" stroke="#007bff" stroke-width="3.4"/><line x1="300.0" y1="95.99999999999997" x2="299.9999995424945" y2="250.75004334168156" stroke="#007bff" stroke-width="3.4"/><circle cx="299.9999994750836" cy="349.24995668891694" r="7" fill="#007bff"/><circle cx="299.9999995424945" cy="250.75004334168156" r="7" fill="#007bff"/><circle cx="299.99999948740236" cy="331.24995668891694" r="7" fill="#ffffff" fill-opacity="0.85" stroke="none"/><text x="299.99999948740236" y="334.74995668891694" text-anchor="middle" font-size="10" fill="#334">1</text><circle cx="299.99999948740236" cy="331.24995668891694" r="7" fill="#ffffff" fill-opacity="0.85" stroke="none"/><text x="299.99999948740236" y="334.74995668891694" text-anchor="middle" font-size="10" fill="#334">2</text><circle cx="299.9999995361401" cy="367.24995668891694" r="7" fill="#ffffff" fill-opacity="0.85" stroke="none"/><text x="299.9999995361401" y="370.74995668891694" text-anchor="middle" font-size="10" fill="#334">3</text><circle cx="299.9999995301757" cy="268.7500433416816" r="7" fill="#ffffff" fill-opacity="0.85" stroke="none"/><text x="299.9999995301757" y="272.2500433416816" text-anchor="middle" font-size="10" fill="#334">1</text><circle cx="299.9999995301757" cy="268.7500433416816" r="7" fill="#ffffff" fill-opacity="0.85" stroke="none"/><text x="299.9999995301757" y="272.2500433416816" text-anchor="middle" font-size="10" fill="#334">2</text><circle cx="299.99999959571" cy="232.75004334168156" r="7" fill="#ffffff" fill-opacity="0.85" stroke="none"/><text x="299.99999959571" y="236.25004334168156" text-anchor="middle" font-size="10" fill="#334">3</text><circle cx="300.0" cy="504.0" r="10" fill="white" stroke="#007bff" stroke-width="2.8"/><text x="300.0" y="504.0" text-anchor="middle" dy="0.35em" font-size="12" fill="#007bff">1</text><circle cx="300.0" cy="95.99999999999997" r="10" fill="white" stroke="#007bff" stroke-width="2.8"/><text x="300.0" y="95.99999999999997" text-anchor="middle" dy="0.35em" font-size="12" fill="#007bff">1</text><text x="300.0" y="522.5" text-anchor="middle" font-size="10" fill="#334">1</text><text x="300.0" y="84.49999999999997" text-anchor="middle" font-size="10" fill="#334">2</text><circle cx="95.99999999999997" cy="300.0" r="5.5" fill="none" stroke="#c62828" stroke-width="2"/></svg><text x="450.0" y="314" text-anchor="middle" font-size="12" font-family="monospace" fill="#888">needle_a_graph</text><svg x="600.0" y="0" width="300" height="300" viewBox="0 0 600 600" xmlns="http://www.w3.org/2000/svg" font-family="DejaVu Sans Mono, Consolas, Liberation Mono, Courier New, monospace"><circle cx="300.0" cy="300.0" r="204.00000000000003" fill="none" stroke="#e2e7ee" stroke-dasharray="3" stroke-width="1"/><line x1="504.0" y1="300.0" x2="431.37600000000003" y2="300.0" stroke="#007bff" stroke-width="3.4"/><line x1="431.37600000000003" y1="300.0" x2="431.37600000000003" y2="300.0" stroke="#007bff" stroke-width="3.4"/><circle cx="431.37600000000003" cy="300.0" r="7" fill="#007bff"/><circle cx="449.37600000000003" cy="300.0" r="7" fill="#ffffff" fill-opacity="0.85" stroke="none"/><text x="449.37600000000003" y="303.5" text-anchor="middle" font-size="10" fill="#334">1</text><circle cx="422.37600000000003" cy="315.5884572681199" r="7" fill="#ffffff" fill-opacity="0.85" stroke="none"/><text x="422.37600000000003" y="319.0884572681199" text-anchor="middle" font-size="10" fill="#334">2</text><circle cx="449.37600000000003" cy="300.0" r="7" fill="#ffffff" fill-opacity="0.85" stroke="none"/><text x="449.37600000000003" y="303.5" text-anchor="middle" font-size="10" fill="#334">3</text><circle cx="504.0" cy="300.0" r="10" fill="white" stroke="#007bff" stroke-width="2.8"/><text x="504.0" y="300.0" text-anchor="middle" dy="0.35em" font-size="12" fill="#007bff">1</text><text x="519.0" y="303.5" text-anchor="middle" font-size="10" fill="#334">1</text><circle cx="299.99999999999994" cy="95.99999999999997" r="5.5" fill="none" stroke="#c62828" stroke-width="2"/></svg><text x="750.0" y="314" text-anchor="middle" font-size="12" font-family="monospace" fill="#888">needle_b_graph</text><svg x="900.0" y="0" width="300" height="300" viewBox="0 0 600 600" xmlns="http://www.w3.org/2000/svg" font-family="DejaVu Sans Mono, Consolas, Liberation Mono, Courier New, monospace"><circle cx="300.0" cy="300.0" r="204.00000000000003" fill="none" stroke="#e2e7ee" stroke-dasharray="3" stroke-width="1"/><line x1="236.7" y1="300.0" x2="208.2" y2="300.0" stroke="#007bff" stroke-width="3.4"/><circle cx="236.7" cy="300.0" r="6" fill="#007bff" stroke="#007bff" stroke-width="3" class="dot"/><circle cx="208.2" cy="300.0" r="6" fill="#007bff" stroke="#007bff" stroke-width="3" class="dot"/></svg><text x="1050.0" y="314" text-anchor="middle" font-size="12" font-family="monospace" fill="#888">barbell_graph</text></svg>